<svg xmlns="http://www.w3.org/2000/svg" xmlns:xlink="http://www.w3.org/1999/xlink" width="104" height="104" version="1.1" viewBox="0 0 104 104"><title>icon3</title><desc>Created with Sketch.</desc><g id="Landing-podcast" fill="none" fill-rule="evenodd" stroke="none" stroke-width="1"><g id="Landing-podcast_Mobile" fill-rule="nonzero" transform="translate(-108.000000, -4569.000000)"><g id="topicos" transform="translate(0.000000, 4004.000000)"><g id="3" transform="translate(0.000000, 552.000000)"><g id="icon3" transform="translate(108.000000, 13.000000)"><path id="Shape" fill="#0000EC" d="M8.66666667,104 L95.3333333,104 C100.112133,104 104,100.112133 104,95.3333333 L104,93.6 L103.987867,93.6 C103.987867,93.3954667 103.9636,93.1892 103.8908,92.9916 L93.6,65.5512 L93.6,8.66666667 C93.6,3.88786667 89.7121333,0 84.9333333,0 L19.0666667,0 C14.2878667,0 10.4,3.88786667 10.4,8.66666667 L10.4,65.5512 L0.1092,92.9916 C0.0364,93.1892 0.0121333333,93.3954667 0.0121333333,93.6 L0,93.6 L0,95.3333333 C0,100.112133 3.88786667,104 8.66666667,104 Z M95.3333333,100.533333 L8.66666667,100.533333 C5.79973333,100.533333 3.46666667,98.2002667 3.46666667,95.3333333 L37.4157333,95.3333333 L38.6412,96.5588 C38.9653333,96.8846667 39.4073333,97.0666667 39.8666667,97.0666667 L64.1333333,97.0666667 C64.5926667,97.0666667 65.0346667,96.8846667 65.3588,96.5588 L66.5842667,95.3333333 L100.533333,95.3333333 C100.533333,98.2002667 98.2002667,100.533333 95.3333333,100.533333 Z M19.0666667,3.46666667 L84.9333333,3.46666667 C87.8002667,3.46666667 90.1333333,5.79973333 90.1333333,8.66666667 L90.1333333,64.1333333 L13.8666667,64.1333333 L13.8666667,8.66666667 C13.8666667,5.79973333 16.1997333,3.46666667 19.0666667,3.46666667 Z M13.3345333,67.6 L90.6654667,67.6 L99.7654667,91.8666667 L65.8666667,91.8666667 C65.4073333,91.8666667 64.9653333,92.0486667 64.6412,92.3745333 L63.4157333,93.6 L40.5842667,93.6 L39.3588,92.3745333 C39.0346667,92.0486667 38.5926667,91.8666667 38.1333333,91.8666667 L4.23453333,91.8666667 L13.3345333,67.6 Z"/><rect id="Rectangle" width="6.933" height="3.467" x="12.133" y="84.933" fill="#0000EC"/><rect id="Rectangle" width="6.933" height="3.467" x="24.267" y="84.933" fill="#0000EC"/><rect id="Rectangle" width="31.2" height="3.467" x="36.4" y="84.933" fill="#0000EC"/><rect id="Rectangle" width="6.933" height="3.467" x="72.8" y="84.933" fill="#0000EC"/><rect id="Rectangle" width="6.933" height="3.467" x="84.933" y="84.933" fill="#0000EC"/><rect id="Rectangle" width="10.4" height="3.467" x="13.867" y="78" fill="#0000EC"/><rect id="Rectangle" width="6.933" height="3.467" x="29.467" y="78" fill="#0000EC"/><rect id="Rectangle" width="6.933" height="3.467" x="41.6" y="78" fill="#0000EC"/><rect id="Rectangle" width="6.933" height="3.467" x="53.733" y="78" fill="#0000EC"/><rect id="Rectangle" width="6.933" height="3.467" x="65.867" y="78" fill="#0000EC"/><rect id="Rectangle" width="12.133" height="3.467" x="78" y="78" fill="#0000EC"/><rect id="Rectangle" width="3.467" height="3.467" x="24.267" y="71.067" fill="#0000EC"/><rect id="Rectangle" width="3.467" height="3.467" x="17.333" y="71.067" fill="#0000EC"/><rect id="Rectangle" width="6.933" height="3.467" x="32.933" y="71.067" fill="#0000EC"/><rect id="Rectangle" width="6.933" height="3.467" x="45.067" y="71.067" fill="#0000EC"/><rect id="Rectangle" width="6.933" height="3.467" x="57.2" y="71.067" fill="#0000EC"/><rect id="Rectangle" width="6.933" height="3.467" x="69.333" y="71.067" fill="#0000EC"/><rect id="Rectangle" width="6.933" height="3.467" x="81.467" y="71.067" fill="#0000EC"/><path id="Shape" fill="#0000EC" d="M19.0666667,60.6666667 L84.9333333,60.6666667 C85.8901333,60.6666667 86.6666667,59.8901333 86.6666667,58.9333333 L86.6666667,8.66666667 C86.6666667,7.70986667 85.8901333,6.93333333 84.9333333,6.93333333 L19.0666667,6.93333333 C18.1098667,6.93333333 17.3333333,7.70986667 17.3333333,8.66666667 L17.3333333,58.9333333 C17.3333333,59.8901333 18.1098667,60.6666667 19.0666667,60.6666667 Z M20.8,10.4 L83.2,10.4 L83.2,57.2 L20.8,57.2 L20.8,10.4 Z"/><path id="Path" fill="#00F3BB" d="M29.9745333,14.3745333 L24.7745333,19.5745333 C24.0968,20.2522667 24.0968,21.3477333 24.7745333,22.0254667 L29.9745333,27.2254667 L32.4254667,24.7745333 L28.4509333,20.8 L32.4254667,16.8254667 L29.9745333,14.3745333 Z"/><path id="Path" fill="#00F3BB" d="M49.7588,14.3745333 L47.3078667,16.8254667 L51.2824,20.8 L47.3078667,24.7745333 L49.7588,27.2254667 L54.9588,22.0254667 C55.6365333,21.3477333 55.6365333,20.2522667 54.9588,19.5745333 L49.7588,14.3745333 Z"/><path id="Path" fill="#00F3BB" d="M52.5078667,38.6412 L47.3078667,43.8412 C46.6301333,44.5189333 46.6301333,45.6144 47.3078667,46.2921333 L52.5078667,51.4921333 L54.9588,49.0412 L50.9842667,45.0666667 L54.9588,41.0921333 L52.5078667,38.6412 Z"/><path id="Path" fill="#00F3BB" d="M72.2921333,38.6412 L69.8412,41.0921333 L73.8157333,45.0666667 L69.8412,49.0412 L72.2921333,51.4921333 L77.4921333,46.2921333 C78.1698667,45.6144 78.1698667,44.5189333 77.4921333,43.8412 L72.2921333,38.6412 Z"/><polygon id="Rectangle" fill="#00F3BB" points="55.718 43.334 67.345 43.334 67.345 46.801 55.718 46.801" transform="translate(61.531080, 45.067707) rotate(-63.434949) translate(-61.531080, -45.067707)"/><rect id="Rectangle" width="3.467" height="3.467" x="41.6" y="48.533" fill="#00F3BB"/><rect id="Rectangle" width="3.467" height="3.467" x="34.667" y="48.533" fill="#00F3BB"/><rect id="Rectangle" width="3.467" height="3.467" x="27.733" y="48.533" fill="#00F3BB"/><path id="Path" fill="#00F3BB" d="M65.8666667,22.5333333 L62.4,22.5333333 L62.4,26 L64.1333333,26 L64.1333333,31.2 L67.6,31.2 L67.6,24.2666667 C67.6,23.3098667 66.8234667,22.5333333 65.8666667,22.5333333 Z"/><rect id="Rectangle" width="3.467" height="3.467" x="62.4" y="15.6" fill="#00F3BB"/></g></g></g></g></g></svg>